<svg width="20" height="20" viewBox="0 0 20 20" fill="none" xmlns="http://www.w3.org/2000/svg">
<path d="M7.30668 1.82625C8.16543 1.70875 8.8871 2.23417 9.22876 2.91708L10.0692 4.5975C10.5354 5.53 10.2675 6.62417 9.56085 7.3125C9.14335 7.71875 8.72376 8.18292 8.48043 8.5925C8.46431 8.62169 8.45928 8.65573 8.46626 8.68833C8.69126 9.9075 9.51751 11.1121 10.2546 11.9758C10.2917 12.017 10.34 12.0464 10.3937 12.0602C10.4473 12.0741 10.5039 12.0718 10.5563 12.0538L12.2125 11.5362C12.6587 11.3968 13.1378 11.4039 13.5796 11.5566C14.0214 11.7093 14.4026 11.9994 14.6675 12.3846L15.8663 14.1279C16.1913 14.6013 16.3558 15.2429 16.1067 15.86C15.8842 16.4112 15.4538 17.2062 14.6708 17.735C13.8583 18.2833 12.7454 18.4917 11.2892 17.9925C9.6621 17.4342 8.12501 16.0342 6.85043 14.2438C5.56835 12.4421 4.51293 10.1917 3.87293 7.845C3.26835 5.62917 3.63335 4.1375 4.49251 3.17708C5.32126 2.25042 6.50876 1.93583 7.30668 1.82625ZM8.2971 3.38292C8.10668 3.0025 7.7671 2.81458 7.44835 2.85833C6.7396 2.95583 5.8521 3.21958 5.26918 3.87167C4.71668 4.48958 4.33418 5.57792 4.87751 7.57083C5.48793 9.8075 6.49293 11.945 7.69918 13.6396C8.91293 15.345 10.2921 16.5492 11.6271 17.0071C12.8167 17.415 13.5813 17.2133 14.0879 16.8717C14.6238 16.5096 14.9533 15.9342 15.1408 15.47C15.2267 15.2575 15.1896 14.9825 15.0079 14.7183L13.8092 12.975C13.6705 12.7732 13.4708 12.6212 13.2394 12.5412C13.008 12.4612 12.7571 12.4574 12.5233 12.5304L10.8671 13.0479C10.3721 13.2025 9.8146 13.0646 9.46251 12.6521C8.69543 11.7533 7.71793 10.375 7.44168 8.87708C7.38888 8.59635 7.43981 8.306 7.58501 8.06C7.90085 7.52917 8.40085 6.98792 8.83376 6.56625C9.25668 6.15458 9.37668 5.54208 9.13751 5.06333L8.2971 3.38333V3.38292Z" fill="white"/>
</svg>
