<svg width="18" height="20" viewBox="0 0 18 20" fill="none" xmlns="http://www.w3.org/2000/svg">
<path d="M16.25 1.25H1.24609C0.558594 1.25 0 1.81641 0 2.51172V17.4883C0 18.1836 0.558594 18.75 1.24609 18.75H16.25C16.9375 18.75 17.5 18.1836 17.5 17.4883V2.51172C17.5 1.81641 16.9375 1.25 16.25 1.25ZM5.28906 16.25H2.69531V7.89844H5.29297V16.25H5.28906ZM3.99219 6.75781C3.16016 6.75781 2.48828 6.08203 2.48828 5.25391C2.48828 4.42578 3.16016 3.75 3.99219 3.75C4.82031 3.75 5.49609 4.42578 5.49609 5.25391C5.49609 6.08594 4.82422 6.75781 3.99219 6.75781V6.75781ZM15.0117 16.25H12.418V12.1875C12.418 11.2188 12.3984 9.97266 11.0703 9.97266C9.71875 9.97266 9.51172 11.0273 9.51172 12.1172V16.25H6.91797V7.89844H9.40625V9.03906H9.44141C9.78906 8.38281 10.6367 7.69141 11.8984 7.69141C14.5234 7.69141 15.0117 9.42187 15.0117 11.6719V16.25V16.25Z" fill="white"/>
</svg>
