<svg width="20" height="20" viewBox="0 0 20 20" fill="none" xmlns="http://www.w3.org/2000/svg">
<path fill-rule="evenodd" clip-rule="evenodd" d="M1.45833 2.5C1.07156 2.5 0.700626 2.65365 0.427136 2.92714C0.153645 3.20063 0 3.57156 0 3.95833L0 15.625C0 16.43 0.653333 17.0833 1.45833 17.0833H18.5417C18.9284 17.0833 19.2994 16.9297 19.5729 16.6562C19.8464 16.3827 20 16.0118 20 15.625V3.95833C20 3.57156 19.8464 3.20063 19.5729 2.92714C19.2994 2.65365 18.9284 2.5 18.5417 2.5H1.45833ZM1.25 3.95833C1.25 3.90308 1.27195 3.85009 1.31102 3.81102C1.35009 3.77195 1.40308 3.75 1.45833 3.75H18.5417C18.5969 3.75 18.6499 3.77195 18.689 3.81102C18.7281 3.85009 18.75 3.90308 18.75 3.95833V4.66833L10.1167 10.5017C10.0822 10.525 10.0416 10.5374 10 10.5374C9.95842 10.5374 9.91778 10.525 9.88333 10.5017L1.25 4.66833V3.95833V3.95833ZM1.25 6.17667V15.625C1.25 15.74 1.34333 15.8333 1.45833 15.8333H18.5417C18.5969 15.8333 18.6499 15.8114 18.689 15.7723C18.7281 15.7332 18.75 15.6803 18.75 15.625V6.17667L10.8167 11.5375C10.3233 11.8708 9.67667 11.8708 9.18333 11.5375L1.25 6.17667Z" fill="white"/>
</svg>
